<?xml version="1.0" encoding="UTF-8"?>
<svg width="108" height="108" viewBox="0 0 108 108" xmlns="http://www.w3.org/2000/svg">
  <path fillColor="#8EC07C"
        d="M48.5,18 h11 v3.5 h-11 z"  />
  <path fillColor="#8EC07C"
        d="M52.5,21.5 h3 v3.5 h-3 z"  />
  <path strokeColor="#8EC07C"
        stroke-width="2.5"
        stroke-linecap="round"
        d="M35,26 L31.5,22.5"  />
  <path strokeColor="#FE8019"
        stroke-width="2.5"
        stroke-linecap="round"
        d="M73,26 L76.5,22.5"  />
  <path strokeColor="#FE8019"
        stroke-width="3.5"
        stroke-linecap="round"
        d="M54,28 A26,26 0 1,1 28,54"  />
  <path strokeColor="#8EC07C"
        stroke-width="3.5"
        stroke-linecap="round"
        d="M29,47 A26,26 0 0,1 47,29"  />
  <path fillColor="#FABD2F"
        d="M54,34 A1.5,1.5 0 1,1 54,37 A1.5,1.5 0 1,1 54,34"  />
  <path fillColor="#FABD2F"
        d="M73,53 A1.5,1.5 0 1,1 73,56 A1.5,1.5 0 1,1 73,53"  />
  <path fillColor="#FABD2F"
        d="M54,72 A1.5,1.5 0 1,1 54,75 A1.5,1.5 0 1,1 54,72"  />
  <path fillColor="#FABD2F"
        d="M35,53 A1.5,1.5 0 1,1 35,56 A1.5,1.5 0 1,1 35,53"  />
  <path strokeColor="#FABD2F"
        stroke-width="3.2"
        stroke-linecap="round"
        stroke-linejoin="round"
        d="M43,47 L50,53 L43,59"  />
  <path strokeColor="#FE8019"
        stroke-width="3.2"
        stroke-linecap="round"
        d="M54,59 L65,59"  />
</svg>